HIERARCHY
ROOT root
{
	OFFSET	0	13.1	24.9
	CHANNELS 6  Xposition Yposition Zposition Xrotation Yrotation Zrotation
	JOINT spine_1
	{
		OFFSET	0	9.99999	0
		CHANNELS 3  Xrotation Yrotation Zrotation
		JOINT spine_2
		{
			OFFSET	0	112	-10
			CHANNELS 3  Xrotation Yrotation Zrotation
			JOINT spine_3
			{
				OFFSET	0	206.5	19.3
				CHANNELS 3  Xrotation Yrotation Zrotation
				JOINT spine_4
				{
					OFFSET	0	110.4	14.6
					CHANNELS 3  Xrotation Yrotation Zrotation
					JOINT neck_1
					{
						OFFSET	0	71.8	-50.3
						CHANNELS 3  Xrotation Yrotation Zrotation
						JOINT neck_2
						{
							OFFSET	0	86.2	-25.8
							CHANNELS 3  Xrotation Yrotation Zrotation
							JOINT head_ee
							{
								OFFSET	0	179.8	-8.7
								CHANNELS 3  Xrotation Yrotation Zrotation
								End Site
								{
									OFFSET	1	0	0
								}
							}
						}
					}
					JOINT left_clavicle
					{
						OFFSET	-43.2	22.4	-70.8
						CHANNELS 3  Xrotation Yrotation Zrotation
						JOINT left_shoulder
						{
							OFFSET	-93.9	-5.79999	48.7
							CHANNELS 3  Xrotation Yrotation Zrotation
							JOINT left_elbow
							{
								OFFSET	-291.4	-30.8	15.2
								CHANNELS 3  Xrotation Yrotation Zrotation
								JOINT left_lowarm_twist
								{
									OFFSET	-110.7	-3.89999	13.6
									CHANNELS 3  Xrotation Yrotation Zrotation
									JOINT left_hand
									{
										OFFSET	-110.7	-3.89999	13.6
										CHANNELS 3  Xrotation Yrotation Zrotation
										JOINT left_ee
										{
											OFFSET	-80.8	-5.10001	12.1
											CHANNELS 3  Xrotation Yrotation Zrotation
											End Site
											{
												OFFSET	1	0	0
											}
										}
									}
								}
							}
						}
					}
					JOINT right_clavicle
					{
						OFFSET	43.2	22.4	-70.8
						CHANNELS 3  Xrotation Yrotation Zrotation
						JOINT right_shoulder
						{
							OFFSET	93.9	-5.79999	48.7
							CHANNELS 3  Xrotation Yrotation Zrotation
							JOINT right_elbow
							{
								OFFSET	291.4	-30.8	15.2
								CHANNELS 3  Xrotation Yrotation Zrotation
								JOINT right_lowarm_twist
								{
									OFFSET	110.7	-3.89999	13.6
									CHANNELS 3  Xrotation Yrotation Zrotation
									JOINT right_hand
									{
										OFFSET	110.7	-3.89999	13.6
										CHANNELS 3  Xrotation Yrotation Zrotation
										JOINT right_ee
										{
											OFFSET	80.8	-5.10001	12.1
											CHANNELS 3  Xrotation Yrotation Zrotation
											End Site
											{
												OFFSET	1	0	0
											}
										}
									}
								}
							}
						}
					}
				}
			}
		}
	}
	JOINT left_hip
	{
		OFFSET	-82.8	-127.5	0.300001
		CHANNELS 3  Xrotation Yrotation Zrotation
		JOINT left_knee
		{
			OFFSET	-28.2	-396.7	2.2
			CHANNELS 3  Xrotation Yrotation Zrotation
			JOINT left_ankle
			{
				OFFSET	-11.7	-411.3	35.4
				CHANNELS 3  Xrotation Yrotation Zrotation
				JOINT left_toes
				{
					OFFSET	0	-60	-88.6
					CHANNELS 3  Xrotation Yrotation Zrotation
					JOINT left_foot_ee
					{
						OFFSET	-22.5	-16.5	-42.2
						CHANNELS 3  Xrotation Yrotation Zrotation
						End Site
						{
							OFFSET	1	0	0
						}
					}
				}
			}
		}
	}
	JOINT right_hip
	{
		OFFSET	82.8	-127.5	0.300001
		CHANNELS 3  Xrotation Yrotation Zrotation
		JOINT right_knee
		{
			OFFSET	28.2	-396.7	2.2
			CHANNELS 3  Xrotation Yrotation Zrotation
			JOINT right_ankle
			{
				OFFSET	11.7	-411.3	35.4
				CHANNELS 3  Xrotation Yrotation Zrotation
				JOINT right_toes
				{
					OFFSET	0	-60	-88.6
					CHANNELS 3  Xrotation Yrotation Zrotation
					JOINT right_foot_ee
					{
						OFFSET	22.5	-16.5	-42.2
						CHANNELS 3  Xrotation Yrotation Zrotation
						End Site
						{
							OFFSET	1	0	0
						}
					}
				}
			}
		}
	}
}
MOTION
Frames: 6
Frame Time: 0.02
1372.05 701.618 -1475.22 1.91259942507 22.0765165728 1.14155711991 -1.36724 -0.659408 -1.66205 -1.36588 -0.552327 -1.70063 -1.34773 -0.140809 -1.7825 -1.35191 -0.420511 -1.73791 2.8091 -0.251645 0.0149024 2.8093 -0.451833 -0.00188747 -0.0 0.0 -0.0 9.84352 -10.8448 19.4774 2.93181 -27.6136 51.2416 2.84672 -54.6481 1.47104 -0.298953 -0.0106293 0.0366996 -2.87575 -4.9199 -22.001 -0.0 0.0 -0.0 8.24452 -0.756552 -16.0612 -56.2942 49.6935 -46.0725 0.453359 12.6577 -0.0502825 -24.9799 1.51308 -2.78716 -2.68391 -13.525 11.3321 0.0 0.0 0.0 -16.9144 6.18725 -1.65261 -12.4647 0.309309 1.88412 39.102 -7.48889 -4.89552 -9.24152 0.0 0.0 -0.0 0.0 -0.0 28.8741 -2.44724 -0.140655 -8.84682 -0.261912 -1.33111 -17.3899 -8.6227 -2.61114 -7.72863 0.0 0.0 0.0 0.0 0.0 
1354.96115402 696.034 -1516.16805177 -0.568036640113 24.5717560488 -0.224777155005 -0.889713 -0.474689 -1.42809 -0.888659 -0.382864 -1.4554 -0.877866 -0.0454365 -1.50422 -0.880913 -0.282403 -1.47817 3.04649 0.606518 -0.801909 3.05255 1.7412 -0.851523 -0.0 0.0 -0.0 9.67075 -15.8411 18.9231 1.64859 -20.5492 54.4453 2.99515 -56.0092 1.59312 0.706931 0.0243711 -0.0869966 -2.55806 -3.24324 -18.9167 -0.0 0.0 -0.0 8.10778 -1.87949 -15.76 -54.2984 49.6297 -43.2709 0.509582 14.1675 -0.0633254 -25.1563 1.52793 -2.8042 -2.62369 -16.1952 9.55047 0.0 0.0 0.0 -16.0593 0.822814 0.805525 -12.7035 0.311208 1.92071 37.3743 -8.65374 -4.76237 -6.48159 0.0 0.0 -0.0 0.0 -0.0 32.616 -1.6115 3.00058 -16.5838 -0.32067 -2.51588 -17.6349 -14.803 -2.66328 -5.51081 0.0 0.0 0.0 0.0 0.0 
1355.37403627 696.034 -1516.33792595 -0.565463764687 23.9952673687 -0.231033276493 -0.889713 -0.474689 -1.42809 -0.888659 -0.382864 -1.4554 -0.877866 -0.0454365 -1.50422 -0.880913 -0.282403 -1.47817 3.04649 0.606518 -0.801909 3.05255 1.7412 -0.851523 -0.0 0.0 -0.0 9.67075 -15.8411 18.9231 1.64859 -20.5492 54.4453 2.99515 -56.0092 1.59312 0.706931 0.0243711 -0.0869966 -2.55806 -3.24324 -18.9167 -0.0 0.0 -0.0 8.10778 -1.87949 -15.76 -54.2984 49.6297 -43.2709 0.509582 14.1675 -0.0633254 -25.1563 1.52793 -2.8042 -2.62369 -16.1952 9.55047 0.0 0.0 0.0 -16.0593 0.822814 0.805525 -12.7035 0.311208 1.92071 37.3743 -8.65374 -4.76237 -6.48159 0.0 0.0 -0.0 0.0 -0.0 32.616 -1.6115 3.00058 -16.5838 -0.32067 -2.51588 -17.6349 -14.803 -2.66328 -5.51081 0.0 0.0 0.0 0.0 0.0 
1351.80130583 698.449 -1536.67442185 0.531462029102 24.6987692294 -1.13204692658 -1.28162 -0.273864 -1.31155 -1.28069 -0.18986 -1.32631 -1.2754 0.122872 -1.33418 -1.27787 -0.0893606 -1.33685 3.62923 0.725799 -1.80057 3.65122 2.80713 -1.9765 -0.0 0.0 -0.0 9.78445 -17.7361 19.0718 -0.0651838 -17.9029 54.3423 3.02875 -56.3046 1.62102 0.727841 0.0250756 -0.0895744 -2.31242 -1.89623 -16.5436 -0.0 0.0 -0.0 8.46857 -0.930958 -16.505 -52.4421 50.2098 -43.7707 0.46479 12.9662 -0.0528176 -25.0811 1.52159 -2.79695 -2.1411 -15.6495 6.8269 0.0 0.0 0.0 -15.972 0.978867 1.33342 -15.9245 0.321905 2.41473 34.1245 -4.05525 -4.37513 -5.57132 0.0 0.0 -0.0 0.0 -0.0 29.9857 -0.630091 3.12403 -16.1545 -0.321606 -2.45002 -15.7257 -15.9741 -2.37757 -7.60435 0.0 0.0 0.0 0.0 0.0 
1329.99184198 704.286 -1607.92044132 0.83613070613 28.6641689658 -2.49585440824 -1.50904 -0.220185 -0.91153 -1.50859 -0.161738 -0.923692 -1.50551 0.0606178 -0.935784 -1.50672 -0.0879259 -0.933614 8.47509 1.08613 0.0452191 8.47952 1.76476 0.0742936 -0.0 0.0 -0.0 9.72772 -21.2289 18.7002 -8.15562 -9.84283 57.9416 2.94851 -55.5915 1.55454 -1.8077 -0.0671902 0.221052 -1.91773 -4.83771 -15.1474 -0.0 0.0 -0.0 8.86527 -0.101532 -17.3294 -54.7568 52.8733 -40.1586 0.655499 17.9895 -0.10376 -21.2092 1.2085 -2.41224 -0.827721 -11.1331 0.668534 0.0 0.0 0.0 -14.6445 -2.15268 3.45906 -19.6379 0.299771 2.98395 30.397 -1.44388 -3.96441 -4.73466 0.0 0.0 -0.0 0.0 -0.0 28.3962 -1.68646 4.01128 -25.3032 -0.195125 -3.84665 -4.32135 -17.0412 -0.645349 -6.14136 0.0 0.0 0.0 0.0 0.0 
1331.81939119 704.286 -1608.48587672 0.829974191854 27.8768651997 -2.48285628106 -1.50904 -0.220185 -0.91153 -1.50859 -0.161738 -0.923692 -1.50551 0.0606178 -0.935784 -1.50672 -0.0879259 -0.933614 8.47509 1.08613 0.0452191 8.47952 1.76476 0.0742936 -0.0 0.0 -0.0 9.72772 -21.2289 18.7002 -8.15562 -9.84283 57.9416 2.94851 -55.5915 1.55454 -1.8077 -0.0671902 0.221052 -1.91773 -4.83771 -15.1474 -0.0 0.0 -0.0 8.86527 -0.101532 -17.3294 -54.7568 52.8733 -40.1586 0.655499 17.9895 -0.10376 -21.2092 1.2085 -2.41224 -0.827721 -11.1331 0.668534 0.0 0.0 0.0 -14.6445 -2.15268 3.45906 -19.6379 0.299771 2.98395 30.397 -1.44388 -3.96441 -4.73466 0.0 0.0 -0.0 0.0 -0.0 28.3962 -1.68646 4.01128 -25.3032 -0.195125 -3.84665 -4.32135 -17.0412 -0.645349 -6.14136 0.0 0.0 0.0 0.0 0.0 
